<svg xmlns="http://www.w3.org/2000/svg" width="1200" height="320" viewBox="0 0 1200 320" role="img" aria-labelledby="title desc">
  <title id="title">Hagen Cloud — Cloud and DevOps Engineering</title>
  <desc id="desc">Infrastructure as Code. Platform engineering. Automation.</desc>
  <defs>
    <linearGradient id="bg" x1="0" y1="0" x2="1" y2="1"><stop stop-color="#10162c"/><stop offset="1" stop-color="#172947"/></linearGradient>
    <linearGradient id="accent" x1="0" y1="0" x2="1" y2="0"><stop stop-color="#6ee7e1"/><stop offset="1" stop-color="#9e94ff"/></linearGradient>
    <radialGradient id="glow"><stop stop-color="#6862d8" stop-opacity=".35"/><stop offset="1" stop-color="#6862d8" stop-opacity="0"/></radialGradient>
    <pattern id="grid" width="40" height="40" patternUnits="userSpaceOnUse"><path d="M40 0H0V40" fill="none" stroke="#9caee3" stroke-opacity=".06"/></pattern>
  </defs>
  <rect width="1200" height="320" rx="18" fill="url(#bg)"/>
  <rect width="1200" height="320" rx="18" fill="url(#grid)"/>
  <ellipse cx="1020" cy="160" rx="280" ry="220" fill="url(#glow)"/>
  <rect x="58" y="48" width="48" height="4" rx="2" fill="url(#accent)"/>
  <g font-family="Segoe UI, Helvetica, Arial, sans-serif">
    <text x="56" y="129" font-size="70" font-weight="700" letter-spacing="-2" fill="#f4f7ff">Hagen Cloud</text>
    <text x="59" y="184" font-size="29" fill="#c3d2f0">Cloud &amp; DevOps Engineering</text>
    <text x="59" y="239" font-size="21" fill="#8fe6e4">Infrastructure as Code · Platforms · Automation</text>
    <text x="59" y="284" font-size="16" letter-spacing="2" fill="#91a3c5">PRACTICAL ENGINEERING. CLEAR FOUNDATIONS.</text>
  </g>
  <g fill="none" stroke-linecap="round" stroke-linejoin="round">
    <path d="M935 90l85-46 85 46v96l-85 47-85-47Z" stroke="url(#accent)" stroke-width="2" opacity=".6"/>
    <path d="M935 90l85 47 85-47m-85 47v96" stroke="#9e94ff" stroke-width="2" opacity=".3"/>
    <path d="M982 114h65c14 0 22-8 22-20s-9-21-21-21c-5-17-17-27-33-27-19 0-32 13-34 29-13 0-23 8-23 19s10 20 24 20Z" transform="translate(0 35)" stroke="#8fe6e4" stroke-width="3"/>
    <path d="M1020 233v29m-85-76-25 15m195-15 25 15" stroke="#8fe6e4" stroke-width="2" opacity=".5"/>
    <circle cx="1020" cy="268" r="6" fill="#9e94ff" stroke="none"/>
    <circle cx="906" cy="204" r="5" fill="#8fe6e4" stroke="none"/>
    <circle cx="1134" cy="204" r="5" fill="#9e94ff" stroke="none"/>
  </g>
</svg>

